# xmcd
# Copyright (C) 1995-1998 Ti Kan
#
# Track frame offsets:
#       150
#       15535
#       34360
#       49485
#       65485
#       82575
#       99875
#       120835
#       136345
#       158750
#       173722
#
# Disc length: 2644 seconds
#
# Revision: 0
# Processed by: cddbd v1.4PL0 Copyright (c) Steve Scherf et al.
# Submitted via: CD-Transfer v1.0
#
DISCID=7d0a520b
DTITLE=Luv - Luv
DYEAR=2003
DGENRE=
TTITLE0=Dschungu
TTITLE1=Küss Mi
TTITLE2=Supersexy
TTITLE3=Schwümmer
TTITLE4=Aus Im Lot
TTITLE5=Nüt Wärt Ohni Di
TTITLE6=Verona
TTITLE7=Chamäleon
TTITLE8=Ohni Mi
TTITLE9=Quartier
TTITLE10=Lotto
EXTD=
EXTT0=
EXTT1=
EXTT2=
EXTT3=
EXTT4=
EXTT5=
EXTT6=
EXTT7=
EXTT8=
EXTT9=
EXTT10=
PLAYORDER=
